<svg width="20" height="20" viewBox="0 0 20 20" fill="none" xmlns="http://www.w3.org/2000/svg">
<path d="M14.25 4.54543C14.25 2.51492 12.4161 0.749972 10 0.749972C7.58392 0.749972 5.75 2.51492 5.75 4.54543C5.75 6.57593 7.58392 8.34088 10 8.34088C12.4161 8.34088 14.25 6.57593 14.25 4.54543Z" stroke="#3C4046" stroke-width="1.5"/>
<path d="M1.49299 7.17387C1.72772 5.15726 3.43594 3.63635 5.46616 3.63635H14.5338C16.5641 3.63635 18.2723 5.15726 18.507 7.17387L19.2208 13.3063C19.6358 16.8708 16.8497 20 13.2611 20H6.73892C3.15031 20 0.364244 16.8708 0.779164 13.3063L1.49299 7.17387Z" fill="#3C4046"/>
<ellipse cx="6.66625" cy="7.89975" rx="0.952381" ry="0.899018" fill="#ECEDEF"/>
<ellipse cx="13.3332" cy="7.89975" rx="0.952381" ry="0.899018" fill="#ECEDEF"/>
</svg>
