<svg width="25" height="25" viewBox="0 0 25 25" fill="none" xmlns="http://www.w3.org/2000/svg">
<g clip-path="url(#clip0_139_44)">
<rect width="25" height="25" fill="white"/>
<path d="M13.2284 22.5044L12.4996 21.7289L11.7709 22.5044C10.9691 23.3576 9.89912 23.8798 8.75999 23.9824C7.62106 24.0849 6.48145 23.7617 5.55051 23.067C4.61885 22.3717 3.95749 21.3494 3.69561 20.1846C3.43367 19.0194 3.59081 17.797 4.13562 16.7441L4.60101 15.8446L3.69577 15.3906C2.66409 14.8732 1.84242 13.9868 1.3888 12.8882C0.934976 11.7892 0.88256 10.5571 1.24203 9.42062C1.60138 8.28455 2.34594 7.3267 3.33139 6.71824C4.31609 6.11023 5.47785 5.88976 6.60425 6.09352L7.63247 6.27951L7.77314 5.24412C7.93419 4.05886 8.50626 2.97885 9.37676 2.20069C10.2466 1.42313 11.3559 0.998541 12.4996 0.998541C13.6433 0.998541 14.7527 1.42313 15.6225 2.20069C16.493 2.97885 17.0651 4.05886 17.2261 5.24412L17.367 6.28094L18.3964 6.09327C19.5234 5.88781 20.6862 6.10725 21.672 6.71501C22.6586 7.32324 23.404 8.28158 23.7637 9.41847C24.1234 10.5558 24.0705 11.7889 23.6157 12.8884C23.161 13.9874 22.3378 14.8736 21.3047 15.39L20.3976 15.8434L20.8637 16.7441C21.4085 17.797 21.5656 19.0194 21.3037 20.1846C21.0418 21.3494 20.3804 22.3717 19.4488 23.067C18.5178 23.7617 17.3782 24.0849 16.2393 23.9824C15.1002 23.8798 14.0302 23.3576 13.2284 22.5044Z" fill="white" stroke="#CFCFCF" stroke-width="2"/>
</g>
<defs>
<clipPath id="clip0_139_44">
<rect width="25" height="25" fill="white"/>
</clipPath>
</defs>
</svg>
