<svg width="100" height="100" viewBox="0 0 100 100" fill="none" xmlns="http://www.w3.org/2000/svg">
<g clip-path="url(#clip0_178_6)">
<path d="M49.9996 0C46.0487 0 42.8568 2.79297 42.8568 6.25V10C26.5621 12.8906 14.2853 25.5078 14.2853 40.625V44.2969C14.2853 53.4766 10.4237 62.3437 3.45946 69.2187L1.80767 70.8398C-0.0673307 72.6758 -0.513759 75.3125 0.624633 77.5586C1.76303 79.8047 4.32999 81.25 7.14249 81.25H92.8568C95.6693 81.25 98.2139 79.8047 99.3746 77.5586C100.535 75.3125 100.067 72.6758 98.1916 70.8398L96.5398 69.2187C89.5755 62.3437 85.7139 53.4961 85.7139 44.2969V40.625C85.7139 25.5078 73.4371 12.8906 57.1425 10V6.25C57.1425 2.79297 53.9505 0 49.9996 0ZM60.1112 96.3477C62.7898 94.0039 64.2854 90.8203 64.2854 87.5H49.9996H35.7139C35.7139 90.8203 37.2095 94.0039 39.888 96.3477C42.5666 98.6914 46.205 100 49.9996 100C53.7943 100 57.4327 98.6914 60.1112 96.3477Z" fill="white"/>
</g>
<defs>
<clipPath id="clip0_178_6">
<rect width="100" height="100" fill="white"/>
</clipPath>
</defs>
</svg>
