<svg width="220" height="220" viewBox="0 0 220 220" fill="none" xmlns="http://www.w3.org/2000/svg">
<circle cx="110" cy="110" r="110" fill="#F9F8FD"/>
<path d="M111.969 143.611C131.69 143.611 147.677 127.624 147.677 107.903C147.677 88.1821 131.69 72.195 111.969 72.195C92.2479 72.195 76.2607 88.1821 76.2607 107.903C76.2607 127.624 92.2479 143.611 111.969 143.611Z" fill="#FFC9D1"/>
<path d="M82.4141 151.607L89.8577 132.585L128.316 126.795L132.448 168.904L93.5762 169.731L82.4141 151.607Z" fill="#FFC9D1"/>
<path d="M148.025 114.492C147.562 116.348 146.625 120.769 145.162 120.791C143.967 120.808 142.823 101.63 144.017 98.4576C145.388 94.8133 141.784 90.2032 139.069 87.8367C134.188 83.5817 123.352 92.7184 112.334 88.5794C112.041 88.4699 112.1 88.4822 108.62 87.0941C97.9141 82.8224 97.3513 82.6991 96.7379 82.6382C91.5478 82.1247 85.2139 86.3717 82.6275 91.55C79.9388 96.9328 82.1853 101.55 79.6569 114.572C79.3623 116.09 78.8996 118.254 78.1716 118.285C76.8408 118.343 75.5413 111.235 75.201 109.374C73.7752 101.574 72.4005 94.0535 75.201 85.6088C75.5065 84.6877 77.3892 81.2689 81.1422 74.469C86.5489 64.6731 89.2682 59.7567 90.054 58.8733C95.6899 52.5354 105.949 46.7537 114.562 49.2188C118.915 50.4648 118.134 52.4679 123.473 54.4174C132.988 57.8913 141.257 53.6428 142.782 56.6454C143.59 58.2358 141.33 59.5471 141.297 62.5866C141.241 67.8018 147.837 69.3089 151.694 74.469C153.768 77.2431 157.317 77.2728 148.025 114.492L148.025 114.492V114.492Z" fill="#2F2E41"/>
<path d="M192.258 183.034C190.819 184.651 189.326 186.235 187.78 187.782C167.004 208.558 139.38 220 109.998 220C84.6031 220 60.523 211.452 41.0414 195.718C41.029 195.709 41.0207 195.701 41.0084 195.688C38.4238 193.605 35.9219 191.388 33.5068 189.047C33.5523 188.683 33.6019 188.324 33.6557 187.968C33.9948 185.569 34.3712 183.282 34.7929 181.178C38.2459 163.925 83.6809 145.812 84.8636 145.341C84.8801 145.337 84.8884 145.333 84.8884 145.333C84.8884 145.333 90.7358 166.886 115.792 166.609C132.858 166.423 129.55 145.333 129.55 145.333C129.55 145.333 129.757 145.374 130.146 145.457C135.075 146.503 169.299 154.021 182.801 164.281C186.915 167.407 189.868 174.065 191.99 182.005C192.081 182.344 192.167 182.691 192.258 183.034V183.034Z" fill="black"/>
<path d="M187.782 32.2185C167.006 11.4429 139.382 0 110 0C80.6184 0 52.9944 11.4429 32.2184 32.2185C11.4426 52.9945 0 80.6185 0 110C0 136.818 9.53198 162.171 26.9996 182.191C28.6662 184.105 30.4072 185.97 32.2184 187.782C32.6443 188.208 33.0744 188.634 33.5087 189.047C35.9237 191.388 38.4256 193.605 41.0102 195.688C41.0225 195.701 41.0308 195.709 41.0432 195.717C60.5249 211.452 84.6049 220 110 220C139.382 220 167.006 208.558 187.782 187.782C189.328 186.235 190.821 184.651 192.26 183.034C210.195 162.887 220 137.198 220 110C220 80.6185 208.558 52.9945 187.782 32.2185V32.2185ZM191.991 182.005C188.737 185.706 185.238 189.188 181.517 192.418C174.458 198.558 166.6 203.802 158.127 207.979C155.154 209.447 152.106 210.782 148.988 211.978C136.876 216.626 123.729 219.173 110 219.173C96.7504 219.173 84.0466 216.8 72.2899 212.457C67.4639 210.679 62.7993 208.566 58.3207 206.147C57.6631 205.791 57.0098 205.431 56.3605 205.064C52.9447 203.128 49.6406 201.015 46.4688 198.732C41.9241 195.473 37.6399 191.872 33.6575 187.968C31.4244 185.78 29.2906 183.502 27.2519 181.132C10.7891 162.01 0.827068 137.149 0.827068 110C0.827068 49.8022 49.8019 0.827068 110 0.827068C170.198 0.827068 219.173 49.8022 219.173 110C219.173 137.566 208.905 162.775 191.991 182.005V182.005Z" fill="#3F3D56"/>
</svg>
